<svg width="24" height="389" viewBox="0 0 24 389" fill="none" xmlns="http://www.w3.org/2000/svg">
<path opacity="0.2" d="M21.9998 192.565H15.9998V13.5435C15.9998 6.07515 9.71992 0 2.00005 0C0.896054 0 0 0.866843 0 1.93484C0 3.00284 0.896054 3.86968 2.00005 3.86968C7.51606 3.86968 11.9999 8.20752 11.9999 13.5435V375.456C11.9999 380.793 7.51588 385.13 2.00005 385.13C0.896054 385.13 0 385.997 0 387.065C0 388.133 0.896054 389 2.00005 389C9.71992 389 16 382.925 16 375.456V196.435H22C23.1039 196.435 24 195.568 24 194.5C24 193.432 23.1038 192.565 21.9998 192.565Z" fill="#04D8FD"/>
</svg>
