<svg width="492" height="149" viewBox="0 0 492 149" fill="none" xmlns="http://www.w3.org/2000/svg">
<g filter="url(#filter0_d)">
<path d="M40.6134 48.4955C45.5668 48.4955 49.7742 49.7786 53.2357 52.3448C56.7568 54.9111 59.1738 58.3128 60.4868 62.5501V49.1221H66.6637V98H60.4868V84.572C59.1738 88.8093 56.7568 92.211 53.2357 94.7773C49.7742 97.3435 45.5668 98.6266 40.6134 98.6266C36.1971 98.6266 32.2283 97.6121 28.7072 95.583C25.2458 93.5538 22.5303 90.6594 20.5609 86.8995C18.6512 83.08 17.6963 78.6339 17.6963 73.5611C17.6963 68.4286 18.6512 63.9824 20.5609 60.2226C22.5303 56.4031 25.2458 53.5086 28.7072 51.5392C32.1687 49.51 36.1374 48.4955 40.6134 48.4955ZM42.2247 54.0457C36.7342 54.0457 32.3179 55.8063 28.9758 59.3274C25.6934 62.7888 24.0522 67.5334 24.0522 73.5611C24.0522 79.5887 25.6934 84.3631 28.9758 87.8842C32.3179 91.3457 36.7342 93.0764 42.2247 93.0764C45.6862 93.0764 48.7895 92.2707 51.5348 90.6594C54.3398 89.048 56.5181 86.7802 58.0698 83.8559C59.6811 80.8719 60.4868 77.4403 60.4868 73.5611C60.4868 69.6819 59.6811 66.2801 58.0698 63.3558C56.5181 60.3718 54.3398 58.0741 51.5348 56.4628C48.7895 54.8514 45.6862 54.0457 42.2247 54.0457ZM86.6133 31.7553V98H80.2574V31.7553H86.6133ZM121.764 48.4955C127.971 48.4955 133.103 50.1367 137.161 53.4191C141.279 56.7015 143.786 61.0581 144.681 66.489H138.146C137.49 62.6098 135.669 59.5661 132.685 57.358C129.701 55.0901 126.031 53.9562 121.674 53.9562C118.511 53.9562 115.587 54.6724 112.901 56.1047C110.275 57.537 108.157 59.7452 106.545 62.7291C104.994 65.6535 104.218 69.2641 104.218 73.5611C104.218 77.858 104.994 81.4985 106.545 84.4825C108.157 87.4068 110.275 89.5851 112.901 91.0174C115.587 92.4498 118.511 93.1659 121.674 93.1659C126.031 93.1659 129.701 92.0618 132.685 89.8537C135.669 87.5858 137.49 84.5123 138.146 80.6331H144.681C143.786 86.064 141.279 90.4206 137.161 93.703C133.103 96.9854 127.971 98.6266 121.764 98.6266C117.109 98.6266 112.961 97.6419 109.321 95.6725C105.74 93.6434 102.935 90.7489 100.906 86.989C98.8766 83.1695 97.8621 78.6935 97.8621 73.5611C97.8621 68.4286 98.8766 63.9824 100.906 60.2226C102.935 56.4031 105.74 53.5086 109.321 51.5392C112.961 49.51 117.109 48.4955 121.764 48.4955ZM180.404 48.2269C186.073 48.2269 190.669 50.0472 194.19 53.6876C197.77 57.2684 199.561 62.5501 199.561 69.5327V98H193.384V69.9803C193.384 64.6687 192.041 60.6105 189.356 57.8056C186.67 54.9409 183 53.5086 178.345 53.5086C173.451 53.5086 169.542 55.0901 166.618 58.2532C163.753 61.3565 162.321 65.9519 162.321 72.0392V98H155.965V31.7553H162.321V61.1178C163.574 56.9402 165.842 53.7473 169.124 51.5392C172.407 49.331 176.166 48.2269 180.404 48.2269ZM234.095 93.4345C238.511 93.4345 242.211 92.3304 245.195 90.1222C248.179 87.9141 249.969 84.9301 250.566 81.1703H257.191C256.296 86.3624 253.819 90.5698 249.761 93.7926C245.702 97.0153 240.57 98.6266 234.363 98.6266C229.708 98.6266 225.56 97.6419 221.92 95.6725C218.339 93.6434 215.534 90.7489 213.505 86.989C211.476 83.1695 210.461 78.6935 210.461 73.5611C210.461 68.4286 211.476 63.9824 213.505 60.2226C215.534 56.4031 218.339 53.5086 221.92 51.5392C225.56 49.51 229.708 48.4955 234.363 48.4955C239.138 48.4955 243.255 49.51 246.717 51.5392C250.238 53.5086 252.894 56.1644 254.684 59.5064C256.534 62.8485 257.459 66.489 257.459 70.4279C257.459 72.0989 257.34 73.6207 257.101 74.9934H216.638C216.698 79.1113 217.533 82.5727 219.145 85.3777C220.816 88.123 222.964 90.1521 225.59 91.465C228.216 92.778 231.051 93.4345 234.095 93.4345ZM234.363 53.5981C231.2 53.5981 228.306 54.2546 225.68 55.5676C223.054 56.8805 220.905 58.9096 219.234 61.6549C217.623 64.3405 216.758 67.7124 216.638 71.7707H251.193C251.432 67.7721 250.775 64.4002 249.223 61.6549C247.672 58.9096 245.583 56.8805 242.957 55.5676C240.331 54.2546 237.467 53.5981 234.363 53.5981ZM328.091 48.2269C333.7 48.2269 338.236 50.0472 341.698 53.6876C345.219 57.2684 346.979 62.5501 346.979 69.5327V98H340.713V69.9803C340.713 64.7284 339.43 60.7 336.863 57.8951C334.357 55.0901 330.895 53.6876 326.479 53.6876C321.764 53.6876 318.005 55.2393 315.2 58.3427C312.395 61.446 310.992 66.0115 310.992 72.0392V98H304.815V69.9803C304.815 64.7284 303.532 60.7 300.966 57.8951C298.459 55.0901 294.998 53.6876 290.582 53.6876C285.867 53.6876 282.107 55.2393 279.302 58.3427C276.497 61.446 275.095 66.0115 275.095 72.0392V98H268.739V49.1221H275.095V60.7597C276.288 56.6418 278.437 53.5384 281.54 51.4496C284.703 49.3012 288.344 48.2269 292.462 48.2269C296.759 48.2269 300.459 49.3608 303.562 51.6287C306.665 53.8965 308.814 57.2386 310.007 61.6549C311.32 57.2983 313.618 53.986 316.901 51.7182C320.183 49.3907 323.913 48.2269 328.091 48.2269ZM421.461 48.4955C426.773 48.4955 431.04 49.898 434.263 52.7029C437.485 55.5079 439.455 59.2976 440.171 64.0719H434.173C433.815 60.9089 432.502 58.3128 430.234 56.2837C428.026 54.1949 425.042 53.1505 421.282 53.1505C418.059 53.1505 415.523 53.9562 413.673 55.5676C411.883 57.1192 410.987 59.208 410.987 61.834C410.987 63.8034 411.554 65.3849 412.688 66.5785C413.882 67.7721 415.344 68.6971 417.075 69.3536C418.805 69.9504 421.133 70.5771 424.057 71.2335C427.638 72.0691 430.503 72.9344 432.651 73.8296C434.859 74.6651 436.739 76.0079 438.291 77.858C439.843 79.7081 440.618 82.2147 440.618 85.3777C440.618 89.2569 439.156 92.4498 436.232 94.9563C433.367 97.4032 429.548 98.6266 424.773 98.6266C419.164 98.6266 414.568 97.254 410.987 94.5087C407.407 91.7038 405.288 87.8842 404.631 83.0502H410.719C411.077 86.2729 412.479 88.8988 414.926 90.9279C417.373 92.957 420.685 93.9716 424.863 93.9716C427.966 93.9716 430.383 93.1659 432.114 91.5546C433.845 89.9432 434.71 87.8544 434.71 85.2882C434.71 83.1994 434.113 81.5283 432.92 80.2751C431.726 79.0218 430.234 78.0967 428.444 77.4999C426.713 76.8435 424.326 76.1571 421.282 75.441C417.761 74.6055 414.926 73.7699 412.778 72.9344C410.689 72.0989 408.899 70.8158 407.407 69.0851C405.915 67.2947 405.169 64.8776 405.169 61.834C405.169 57.8354 406.631 54.6127 409.555 52.1658C412.479 49.7189 416.448 48.4955 421.461 48.4955ZM474.263 92.4498V98H468.444C463.73 98 460.209 96.8959 457.881 94.6878C455.554 92.4199 454.39 88.6302 454.39 83.3187V54.5828H446.96V49.1221H454.39V36.7684H460.746V49.1221H474.174V54.5828H460.746V83.4083C460.746 86.8697 461.372 89.2569 462.626 90.5698C463.879 91.8231 466.087 92.4498 469.25 92.4498H474.263Z" fill="white"/>
</g>
<g filter="url(#filter1_d)">
<g clip-path="url(#clip0)">
<path fill-rule="evenodd" clip-rule="evenodd" d="M383.975 90.1767L384.938 103.986C384.938 103.986 378.788 107.522 370.041 106.58L370.633 89.8854L383.975 90.1767Z" fill="url(#paint0_radial)"/>
<path fill-rule="evenodd" clip-rule="evenodd" d="M389.855 92.6823L379.139 96.5681L364.205 93.9665L366.799 53.3314L373.593 37.5224L376.952 36.3657L387.762 64.8198L389.855 92.6823Z" fill="url(#paint1_radial)"/>
<path opacity="0.96" fill-rule="evenodd" clip-rule="evenodd" d="M387.762 64.8198L376.536 74.02L379.139 96.5681L389.855 92.6823L387.762 64.8198Z" fill="#FFC548"/>
<path opacity="0.5" fill-rule="evenodd" clip-rule="evenodd" d="M376.536 74.0202L366.799 53.3316L364.205 93.9668L379.139 96.5684L376.536 74.0202Z" fill="#AC46B3"/>
<path opacity="0.5" fill-rule="evenodd" clip-rule="evenodd" d="M376.952 36.3653L369.486 47.0812L373.593 37.5221L376.952 36.3653Z" fill="#AC46B3"/>
<path fill-rule="evenodd" clip-rule="evenodd" d="M379.013 71.9957L374.377 69.4264L376.88 76.9247L379.013 71.9957Z" fill="#FFEB72"/>
<path fill-rule="evenodd" clip-rule="evenodd" d="M370.19 46.0694C370.19 46.0694 369.165 49.9932 372.837 53.8701C376.509 57.7471 380.097 54.8832 383.569 58.9069C387.04 62.9305 388.204 67.574 387.787 72.8024C386.764 85.6109 379.12 78.4669 377.181 79.8873C375.243 81.3076 372.335 91.8403 368.608 88.6681C364.881 85.4959 366.98 68.3275 370.171 65.6482C373.363 62.969 372.78 62.5009 377.087 63.316C381.388 64.1313 383.409 68.3844 381.214 70.1833C379.018 71.9822 376.556 70.8746 375.276 72.0959C373.997 73.3173 373.198 73.5397 372.87 73.2493C372.535 72.959 372.149 68.0362 372.149 68.0362C372.149 68.0362 373.967 66.4597 376.241 67.0362C378.515 67.6127 379.559 69.799 380.82 69.2237C382.081 68.6485 381.204 66.291 378.182 64.6378C375.159 62.9847 371.639 64.517 369.929 66.7103C368.219 68.9035 367.706 76.0204 371.439 77.9268C375.173 79.8332 377.816 76.5953 382.2 74.666C386.584 72.7367 386.574 67.1633 385.194 63.1784C383.814 59.1934 378.669 59.6246 373.277 58.8999C367.886 58.1753 366.806 53.3311 366.806 53.3311L370.19 46.0694Z" fill="url(#paint2_linear)"/>
<path fill-rule="evenodd" clip-rule="evenodd" d="M384.938 103.985C384.938 103.985 383.64 97.8821 381.996 97.3888C380.344 96.8956 377.526 106.371 377.526 106.371C377.526 106.371 381.335 106.364 384.938 103.985Z" fill="url(#paint3_linear)"/>
<path fill-rule="evenodd" clip-rule="evenodd" d="M370.176 102.817C370.176 102.817 373.343 99.781 374.435 95.7465L370.451 95.0558L370.176 102.817Z" fill="url(#paint4_linear)"/>
<path opacity="0.96" fill-rule="evenodd" clip-rule="evenodd" d="M364.205 93.9669C364.205 93.9669 366.314 61.7709 367.804 60.9394C369.294 60.108 376.88 76.9246 376.88 76.9246L374.37 69.4201L366.793 53.3255L364.205 93.9669Z" fill="#FFC548"/>
<path fill-rule="evenodd" clip-rule="evenodd" d="M366.799 53.3319L373.593 37.5229L376.952 36.3662L387.762 64.8203L377.016 38.48L374.074 38.646L366.799 53.3319Z" fill="#FFFF39"/>
<path fill-rule="evenodd" clip-rule="evenodd" d="M372.828 42.8444L373.304 44.6388L368.718 54.8517L367.232 53.6761L372.828 42.8444Z" fill="white"/>
<path fill-rule="evenodd" clip-rule="evenodd" d="M387.762 64.8197L389.384 86.4261L388.423 86.5703L386.658 67.6018L387.762 64.8197Z" fill="white"/>
<path fill-rule="evenodd" clip-rule="evenodd" d="M385.676 94.1963C385.676 94.1963 387.908 95.2727 388.932 94.4937C389.957 93.7147 385.593 84.3106 376.757 81.2937C367.928 78.2765 364.442 79.2326 363.777 79.86C363.112 80.4874 364.981 83.3261 364.981 83.3261L365.014 81.2542C365.014 81.2542 372.295 81.2758 378.046 84.3674C385.636 88.4513 386.631 93.8541 386.631 93.8541L385.676 94.1963Z" fill="url(#paint5_linear)"/>
<path fill-rule="evenodd" clip-rule="evenodd" d="M384.018 54.9687C384.018 54.9687 385.409 54.2681 384.878 52.7821C384.347 51.2962 381.019 48.0032 375.963 46.5205C370.907 45.0442 366.752 49.0439 366.293 49.9335C365.835 50.8232 367.195 52.482 367.195 52.482L367.784 51.0324C367.784 51.0324 371.095 48.0874 376.424 48.8651C381.753 49.6428 383.205 52.8266 383.205 52.8266L384.018 54.9687Z" fill="url(#paint6_linear)"/>
<path opacity="0.7" fill-rule="evenodd" clip-rule="evenodd" d="M370.115 100.818L370.346 98.107L384.72 96.8201L384.497 97.677C384.497 97.677 379.043 100.988 370.115 100.818Z" fill="#672777"/>
<path fill-rule="evenodd" clip-rule="evenodd" d="M385.676 94.1969C385.676 94.1969 386.518 95.3858 384.72 96.821C384.72 96.821 376.791 100.283 369.287 97.7501C369.287 97.7501 368.153 96.4039 368.793 94.7673C368.793 94.7673 375.824 96.2412 379.125 95.9044C382.419 95.5614 385.676 94.1969 385.676 94.1969Z" fill="url(#paint7_linear)"/>
<path fill-rule="evenodd" clip-rule="evenodd" d="M384.497 97.677C384.497 97.677 385.277 97.8962 385.35 99.0253C385.423 100.154 374.27 104.61 370.129 104.007C365.981 103.404 370.283 100.046 370.283 100.046L370.109 100.818C370.115 100.818 377.441 100.838 384.497 97.677Z" fill="url(#paint8_linear)"/>
<path fill-rule="evenodd" clip-rule="evenodd" d="M381.238 105.498L382.29 109.192C382.29 109.192 379.858 112.66 372.694 112.085L373.376 106.746C373.376 106.74 378.52 106.699 381.238 105.498Z" fill="url(#paint9_linear)"/>
<path fill-rule="evenodd" clip-rule="evenodd" d="M389.384 86.4258C389.384 86.4258 390.441 85.8887 390.652 84.8277C390.863 83.773 386.532 80.2868 377.022 81.3811C367.506 82.4756 363.672 86.9386 363.34 87.9969C363.008 89.0553 364.483 90.0651 364.483 90.0651L364.605 88.4059C364.605 88.4059 371.089 83.6451 378.743 83.1313C386.398 82.6175 389.266 84.8634 389.266 84.8634L389.384 86.4258Z" fill="url(#paint10_linear)"/>
</g>
</g>
<defs>
<filter id="filter0_d" x="0.0862885" y="31.7549" width="491.787" height="102.556" filterUnits="userSpaceOnUse" color-interpolation-filters="sRGB">
<feFlood flood-opacity="0" result="BackgroundImageFix"/>
<feColorMatrix in="SourceAlpha" type="matrix" values="0 0 0 0 0 0 0 0 0 0 0 0 0 0 0 0 0 0 127 0"/>
<feOffset dy="18.0745"/>
<feGaussianBlur stdDeviation="8.805"/>
<feColorMatrix type="matrix" values="0 0 0 0 0 0 0 0 0 0 0 0 0 0 0 0 0 0 0.2 0"/>
<feBlend mode="overlay" in2="BackgroundImageFix" result="effect1_dropShadow"/>
<feBlend mode="normal" in="SourceGraphic" in2="effect1_dropShadow" result="shape"/>
</filter>
<filter id="filter1_d" x="344.111" y="35.9941" width="64.9713" height="112.154" filterUnits="userSpaceOnUse" color-interpolation-filters="sRGB">
<feFlood flood-opacity="0" result="BackgroundImageFix"/>
<feColorMatrix in="SourceAlpha" type="matrix" values="0 0 0 0 0 0 0 0 0 0 0 0 0 0 0 0 0 0 127 0"/>
<feOffset dy="18.0745"/>
<feGaussianBlur stdDeviation="8.805"/>
<feColorMatrix type="matrix" values="0 0 0 0 0 0 0 0 0 0 0 0 0 0 0 0 0 0 0.2 0"/>
<feBlend mode="overlay" in2="BackgroundImageFix" result="effect1_dropShadow"/>
<feBlend mode="normal" in="SourceGraphic" in2="effect1_dropShadow" result="shape"/>
</filter>
<radialGradient id="paint0_radial" cx="0" cy="0" r="1" gradientUnits="userSpaceOnUse" gradientTransform="translate(377.091 102.154) rotate(178.26) scale(7.99132)">
<stop stop-color="#DDDBE3"/>
<stop offset="1" stop-color="#866DA9"/>
</radialGradient>
<radialGradient id="paint1_radial" cx="0" cy="0" r="1" gradientUnits="userSpaceOnUse" gradientTransform="translate(375.394 51.4999) rotate(178.26) scale(30.3689)">
<stop offset="0.00558659" stop-color="#FFF251"/>
<stop offset="0.5838" stop-color="#FF9800"/>
<stop offset="0.9944" stop-color="#FF8800"/>
</radialGradient>
<linearGradient id="paint2_linear" x1="387.766" y1="67.1293" x2="366.217" y2="67.784" gradientUnits="userSpaceOnUse">
<stop stop-color="#FF9207"/>
<stop offset="0.6201" stop-color="#CF5002"/>
<stop offset="0.9777" stop-color="#B62E00"/>
</linearGradient>
<linearGradient id="paint3_linear" x1="384.869" y1="101.712" x2="377.388" y2="101.94" gradientUnits="userSpaceOnUse">
<stop stop-color="#310045"/>
<stop offset="0.9617" stop-color="#81FFE7"/>
</linearGradient>
<linearGradient id="paint4_linear" x1="372.173" y1="95.0027" x2="372.409" y2="102.75" gradientUnits="userSpaceOnUse">
<stop stop-color="#310045"/>
<stop offset="0.9617" stop-color="#81FFE7"/>
</linearGradient>
<linearGradient id="paint5_linear" x1="376.105" y1="78.9128" x2="376.597" y2="95.1216" gradientUnits="userSpaceOnUse">
<stop stop-color="#361B5A"/>
<stop offset="1" stop-color="#654D7C"/>
</linearGradient>
<linearGradient id="paint6_linear" x1="375.422" y1="46.1429" x2="375.698" y2="55.221" gradientUnits="userSpaceOnUse">
<stop stop-color="#361B5A"/>
<stop offset="1" stop-color="#654D7C"/>
</linearGradient>
<linearGradient id="paint7_linear" x1="377.206" y1="94.4552" x2="377.333" y2="98.6252" gradientUnits="userSpaceOnUse">
<stop stop-color="#361B5A"/>
<stop offset="1" stop-color="#654D7C"/>
</linearGradient>
<linearGradient id="paint8_linear" x1="376.75" y1="97.9098" x2="376.931" y2="103.884" gradientUnits="userSpaceOnUse">
<stop stop-color="#361B5A"/>
<stop offset="1" stop-color="#654D7C"/>
</linearGradient>
<linearGradient id="paint9_linear" x1="377.339" y1="105.613" x2="377.534" y2="112.053" gradientUnits="userSpaceOnUse">
<stop stop-color="#361B5A"/>
<stop offset="1" stop-color="#654D7C"/>
</linearGradient>
<linearGradient id="paint10_linear" x1="376.811" y1="81.2729" x2="377.066" y2="89.6859" gradientUnits="userSpaceOnUse">
<stop stop-color="#361B5A"/>
<stop offset="1" stop-color="#654D7C"/>
</linearGradient>
<clipPath id="clip0">
<rect width="27.466" height="75.6703" fill="white" transform="translate(391.473 111.63) rotate(178.26)"/>
</clipPath>
</defs>
</svg>
